# xmcd
#
# Track frame offsets:
#	150
#	15012
#	30215
#	44763
#	57087
#	70881
#	85434
#	99032
#	112009
#	124680
#	137350
#	151440
#	164717
#	178237
#	191494
#	205446
#	219661
#	231977
#	246160
#	259753
#	272385
#	286753
#	301006
#
# Disc length: 4208 seconds
# Revision: 0
# Processed by: cddbd v1.5.2PL0 Copyright (c) Steve Scherf et al.
# Submitted via: dBpowerAMP V12.0
#
DISCID=3c106e17
DTITLE=Various Artist - Times Ain't Like They Used to Be, Vol. 7: Early American Rural Music
DYEAR=2003
DGENRE=Country
TTITLE0=Dilly and His Dill Pickles - Bust Down Stomp
TTITLE1=Jimmie Tarlton - Dixie Mail
TTITLE2=King Solomon Hill - Times Has Done Got Hard
TTITLE3=The East Texas Serenaders - Mineola Rag
TTITLE4=Sheffield Male Quartet - Christ Arose
TTITLE5="Gitfiddle Jim" - Rainy Night Blues
TTITLE6=Three Tobacco Tags - Good Gal Remember Me
TTITLE7=Red Headed Fiddlers - Texas Quickstep
TTITLE8=Ed Bell - Ham Bone Blues
TTITLE9=David Miller - Cannonball Rag
TTITLE10=Fiddlin John Carson and His Virgina Reelers - Little More Sugar in the Coffee - Peter Went a'Fishin
TTITLE11=Bo Weavil Jackson - Devil and My Brown Blues
TTITLE12=The Stripling Brothers - Horseshoe Bend
TTITLE13=Daniels-Deason Sacred Harp Singers - Primrose Hill
TTITLE14=Skip James - Hard Luck Child
TTITLE15=Uncle Dave Macon and Sam McGee - Go On, Nora Lee
TTITLE16=Dennis McGee - Jeunes Gens Campagnard
TTITLE17=Jay Bird Coleman - I'm Gonna Cross the River of Jordon Some of These Days
TTITLE18=Uncle Pete and Louise - Only a Tramp
TTITLE19=Ben Jarrell and Frank Jenkins - Jack of Diamonds
TTITLE20=Son House - Dry Spell Blues - Part 1
TTITLE21="Ted" Sharp, Hinman and Sharp - Pike's Peak
TTITLE22=Old Southern Sacred Singers - I'll Go Where You Want Me to Go
EXTD=
EXTT0=
EXTT1=
EXTT2=
EXTT3=
EXTT4=
EXTT5=
EXTT6=
EXTT7=
EXTT8=
EXTT9=
EXTT10=
EXTT11=
EXTT12=
EXTT13=
EXTT14=
EXTT15=
EXTT16=
EXTT17=
EXTT18=
EXTT19=
EXTT20=
EXTT21=
EXTT22=
PLAYORDER=
